inDegrees=no
num_controls=7
num_derivatives=13
num_iterations=105
num_multipliers=7
num_parameters=0
num_slacks=7
num_states=26
objective=5.271562
objective_accelerations=0.358663
objective_balance=0.032984
objective_effort=0.172214
objective_height=4.597075
objective_ligament=0.110627
solver_duration=1172.637643
status=Solve_Succeeded
success=true
DataType=double
version=3
OpenSimVersion=4.4-2022-07-23-0e9fedc
endheader
time	/jointset/ground_pelvis/pelvis_tilt/value	/jointset/ground_pelvis/pelvis_tx/value	/jointset/ground_pelvis/pelvis_ty/value	/jointset/hip_l/hip_flexion_l/value	/jointset/hip_l/hip_adduction_l/value	/jointset/hip_l/hip_rotation_l/value	/jointset/back/lumbar_extension/value	/jointset/patellofemoral_l/patellar_flexion_l/value	/jointset/knee_l/knee_flexion_l/value	/jointset/knee_l/knee_adduction_l/value	/jointset/knee_l/knee_rotation_l/value	/jointset/ankle_l/ankle_angle_l/value	/jointset/subtalar_l/subtalar_angle_l/value	/jointset/ground_pelvis/pelvis_tilt/speed	/jointset/ground_pelvis/pelvis_tx/speed	/jointset/ground_pelvis/pelvis_ty/speed	/jointset/hip_l/hip_flexion_l/speed	/jointset/hip_l/hip_adduction_l/speed	/jointset/hip_l/hip_rotation_l/speed	/jointset/back/lumbar_extension/speed	/jointset/patellofemoral_l/patellar_flexion_l/speed	/jointset/knee_l/knee_flexion_l/speed	/jointset/knee_l/knee_adduction_l/speed	/jointset/knee_l/knee_rotation_l/speed	/jointset/ankle_l/ankle_angle_l/speed	/jointset/subtalar_l/subtalar_angle_l/speed	/forceset/tau_hip_flexion_l	/forceset/tau_hip_adduction_l	/forceset/tau_hip_rotation_l	/forceset/tau_knee_flexion_l	/forceset/tau_ankle_angle_l	/forceset/tau_subtalar_angle_l	/forceset/tau_lumbar_extension	lambda_cid13_p0	lambda_cid13_p1	lambda_cid13_p2	lambda_cid13_p3	lambda_cid13_p4	lambda_cid13_p5	lambda_cid14_p0	/jointset/ground_pelvis/pelvis_tilt/accel	/jointset/ground_pelvis/pelvis_tx/accel	/jointset/ground_pelvis/pelvis_ty/accel	/jointset/hip_l/hip_flexion_l/accel	/jointset/hip_l/hip_adduction_l/accel	/jointset/hip_l/hip_rotation_l/accel	/jointset/back/lumbar_extension/accel	/jointset/patellofemoral_l/patellar_flexion_l/accel	/jointset/knee_l/knee_flexion_l/accel	/jointset/knee_l/knee_adduction_l/accel	/jointset/knee_l/knee_rotation_l/accel	/jointset/ankle_l/ankle_angle_l/accel	/jointset/subtalar_l/subtalar_angle_l/accel	gamma_cid13_p0	gamma_cid13_p1	gamma_cid13_p2	gamma_cid13_p3	gamma_cid13_p4	gamma_cid13_p5	gamma_cid14_p0
0.5	-0.1258501301136879	0.06889729339794477	0.8222532421693025	0.6213169669876141	-0.4407465323907943	-0.3011904900069965	-0.2432040100093369	0.673792751867812	0.6737927518678021	-0.1571051673777443	-0.1740881726709406	0.2148977559548461	0.02600879297514309	-0.2151298524000348	0.01117305026356347	-0.2912715040609819	1.189558498585303	-0.2539602859496588	0.6763526708120569	-0.1637436581931366	1.613981321962235	1.613981321962204	0.01932968090960435	-0.005730696344804993	0.7604699841010742	0.135848919155364	-0.07036045305840972	0.04347047171592908	-0.01313358364123004	-0.2158267339704078	-0.01931799149397653	0.01931143606986382	0.1012891558050052	-39.62985580635787	-6.331333191282017	6.25134736741197	4.553884852101626	-533.2157328247322	-62.70517362144134	-31.7844386630269	0.07786401171409511	0.1162980318511393	-0.2767272707836163	-0.5558956045107688	0.5384613006363835	-0.1900107670360991	0.7704287901482371	-1.150794736611694	-1.150794736611698	-0.1606877510075096	0.06246113026684703	-0.5029132350687907	0.4308369171825626	-8.119933934137429e-08	-8.470564822170951e-07	1.152251035073869e-07	-1.688352876116182e-07	-2.364319189910304e-08	-4.42861362976841e-07	-9.726405482786821e-08
0.51	-0.1279973099593182	0.06901482147992245	0.8193272741269109	0.6331829005497377	-0.4432593371562572	-0.2944383350867931	-0.2448028329797006	0.689872881951066	0.6898728819510712	-0.1569200802499761	-0.1741434643092368	0.2224761637041317	0.02738813400610533	-0.214287756149938	0.01232974032183976	-0.2938607361013206	1.183461844278113	-0.2485855501452303	0.6739793475773393	-0.1560096009922795	1.601826845846437	1.601826845846431	0.01769373777852631	-0.005330214044850026	0.7551087859166912	0.1399916034745281	-0.07257268539322353	0.04530894158955487	-0.01304573095303186	-0.2181607486570649	-0.02255438771652457	0.01955122496849931	0.1031742564750299	-40.73517450235864	-6.177305911078744	6.152962975199985	4.964183013058415	-535.0395878669718	-62.48470345309659	-31.05254091058147	0.09014978858728721	0.1148982085546378	-0.2408220590146641	-0.661490991460038	0.5393083002188148	-0.2759168055727463	0.776594418171899	-1.280431685532584	-1.280431685528681	-0.1642642357637742	0.028479341676907	-0.5681728696735497	0.4019467587879949	-9.609266390041993e-08	-7.955121343279596e-07	1.762738119054833e-07	-1.517592718950407e-07	-4.350920528338291e-08	-4.531156429581259e-07	-1.004236318427091e-07
0.52	-0.1301355153710762	0.06914382520563007	0.8163772535864441	0.6449828794392403	-0.4457179288477068	-0.2877128981397047	-0.2463239753314376	0.7058249357458727	0.7058249357458874	-0.1567511958818205	-0.1741948236121783	0.2299978695196633	0.02880809439415968	-0.2133349656226083	0.01346817900954735	-0.2960820036759744	1.176367564065438	-0.2431176711458897	0.6710090761872952	-0.1482075344666891	1.588366064271887	1.588366064271907	0.01608912898321636	-0.004944229272199298	0.7491295973502889	0.1439727905738858	-0.07478491772814216	0.04714741146319534	-0.01295787826474734	-0.2204947633437522	-0.02579078393906728	0.01979101386715647	0.1050593571449551	-41.84609870855362	-6.022214538181718	6.05431519891645	5.37136032772179	-536.9542316867588	-62.29120514550522	-30.31752125071775	0.1000028671607212	0.1126477577373942	-0.2031343776466394	-0.7554207856079287	0.5570899396188137	-0.3094003981013728	0.7840306550948972	-1.412055828361906	-1.412055828361878	-0.1544208838538491	0.05956162480609088	-0.6265113114726024	0.3985374732213052	-1.133985081549023e-07	-7.360185036122018e-07	2.502512129264565e-07	-1.309401757618412e-07	-6.943179674167134e-08	-4.64419316404981e-07	-1.044120938437836e-07
0.53	-0.1322634975688976	0.06928410579315299	0.8134069152849955	0.6567067500049241	-0.4481214500938422	-0.2810197999475802	-0.2477669956599381	0.7216358121461085	0.7216358121461166	-0.1565984598108188	-0.1742421310555867	0.23745668640426	0.03026693768414521	-0.2122410922261172	0.01458334936836997	-0.2979214610408464	1.168242455855657	-0.2375768936012115	0.6675131641003541	-0.1403941440909413	1.573600699589536	1.573600699589568	0.01446283304673566	-0.004521345047089121	0.7425345724156492	0.1477620482131466	-0.07693145992849669	0.04897647186436414	-0.01289009359789012	-0.2228855391575685	-0.02891159046189589	0.01993010162005855	0.1068808280433581	-42.92400101609282	-5.821452350979877	5.939569560096465	5.785387327304874	-538.8634608761647	-62.0175135176932	-29.58877828945965	0.1171425493352149	0.110239305016608	-0.164738689511952	-0.865663889086541	0.5540497322666902	-0.3843833189062992	0.7803513001905886	-1.540032914683473	-1.540032914681772	-0.1661105805259115	0.03308874040422231	-0.6909106892067893	0.3641259795171971	-1.1788861444641e-07	-6.765471494612969e-07	2.792600298860033e-07	-1.162013212137882e-07	-7.678419455363349e-08	-4.52484499055102e-07	-1.027008489250286e-07
0.54	-0.1343799284380809	0.06943539561027594	0.8104201049551771	0.6683444478784005	-0.4504692679504624	-0.2743646002173001	-0.2491318104704117	0.7372927836742225	0.7372927836742188	-0.1564618620255512	-0.1742853222729463	0.2448465705185604	0.03176267476457045	-0.2110246998919081	0.01567002492955304	-0.2993764093499708	1.159133025628938	-0.2319769932415524	0.663429383816779	-0.1325664308601234	1.557585089846709	1.557585089846752	0.01286147183102396	-0.004120984060337913	0.7353430432911241	0.1513515486619629	-0.07907800212898532	0.05080553226553317	-0.01282230893091076	-0.225276314971423	-0.03203239698472422	0.02006918937295959	0.1087022989416425	-44.00485193983377	-5.619778376039431	5.824227458947728	6.191151959016614	-540.8210083478715	-61.76530066905157	-28.86726302295339	0.1245066547043217	0.1069487982094962	-0.1262325664971281	-0.9522851889955525	0.5689145026150439	-0.4269740374281062	0.7868952261089076	-1.662104840457097	-1.662104840457099	-0.1494339397000049	0.05505697713441853	-0.7458121494496349	0.3585860351324669	-1.081996063959031e-07	-6.171004417225699e-07	2.585163708626947e-07	-1.081895424620674e-07	-6.359084620370249e-08	-4.148390110364956e-07	-9.468354528646234e-08
0.55	-0.1364836402481575	0.06959739642156283	0.807420678316735	0.679886293679194	-0.4527608057071114	-0.267752997414084	-0.2504182918564218	0.7527834908796215	0.7527834908796418	-0.1563411164673547	-0.174324472440354	0.2521616377508351	0.03329331701389862	-0.2096947909474387	0.01672451294112744	-0.3004422258725571	1.149072294281493	-0.2263257238576232	0.6588012754547622	-0.1247381693458356	1.540354941254265	1.540354941254275	0.01128706332071604	-0.003709018534742112	0.7275748819958889	0.1547371782381508	-0.08111997478756967	0.0524356438856445	-0.0127738588068165	-0.2277873923248597	-0.03501431591947632	0.0202203499877072	0.1104307103106132	-45.04174533840787	-5.431823970975148	5.711962602401446	6.57944998103136	-542.7731835511818	-61.57005220665764	-28.15258603560003	0.1406674233594132	0.1038343808154797	-0.08676360414591627	-1.057539004845554	0.5639766974064374	-0.494287473269403	0.7795431634628975	-1.783663303682238	-1.783663303687138	-0.1616044782345584	0.03431189330821329	-0.8066729570868101	0.3226576137609407	-9.749289429975851e-08	-5.589743053303032e-07	2.337703414943655e-07	-1.00416162030712e-07	-5.057734521890288e-08	-3.754577179533388e-07	-8.615544188026649e-08
0.5600000000000001	-0.1385733660869972	0.0697697692286017	0.8044125920312656	0.6913226177870447	-0.4549956820617032	-0.2611903873420168	-0.2516267403174186	0.768095857912108	0.7680958579121214	-0.1562361470285857	-0.1743594938418561	0.2593961524026515	0.03485663679796767	-0.2082275056412839	0.01774442407994537	-0.3011083387554565	1.138028687044977	-0.2206447128287037	0.6536308375855091	-0.1169598458565455	1.521917055260052	1.52191705526003	0.00970624794887179	-0.003295230887697373	0.7192325271996	0.1578870556103039	-0.08316194744626033	0.05406575550574839	-0.01272540868292954	-0.2302984696782966	-0.03799623485422817	0.02037151060244838	0.1121591216794939	-46.08291347458589	-5.243004409247983	5.599427101920742	6.963418216777805	-544.7913475676994	-61.39795693206987	-27.44462115071658	0.1519819270413996	0.1000334236582297	-0.04629183855972095	-1.148860366809827	0.574862831613156	-0.5354399388752421	0.776907621109344	-1.903652320810708	-1.903652320810712	-0.1507153120072258	0.05542140142436482	-0.8606508496603429	0.3114355943255975	-8.556493734884879e-08	-5.024328545537886e-07	2.042214677120117e-07	-9.292885958379482e-08	-3.777966107226094e-08	-3.339934587927217e-07	-7.70143787529152e-08
0.5700000000000001	-0.1406478135092747	0.06995215185964015	0.8013998435429956	0.7026438156064413	-0.457173574485555	-0.2546822422661214	-0.2527576279059875	0.7832179943639906	0.7832179943640094	-0.1561467675838883	-0.1743903686600679	0.2665444691886987	0.03645034803196286	-0.2066400426083862	0.01872512186269216	-0.3013734521552285	1.126054781338991	-0.2149308657669706	0.6478953926801045	-0.1092312147823867	1.502320957413794	1.502320957413788	0.008183471602826486	-0.002889234093780919	0.7103406250035589	0.1608143841701791	-0.08512211497419693	0.05562278083160082	-0.01269054661120544	-0.232846548896218	-0.04085645441930861	0.02046916399833248	0.1138100484824619	-47.08514709383258	-5.033160846327287	5.478281509722845	7.339927041157034	-546.7626581718438	-61.1959689675149	-26.74345408656394	0.1654217862494855	0.09602317723178468	-0.006441187295065921	-1.245066528360591	0.570097077574913	-0.6080722165305407	0.7688094117385572	-2.015965803403526	-2.015965803400942	-0.15104459099629	0.03179320949573807	-0.9170121383439523	0.2773137278382684	-7.398637224317541e-08	-4.448088753363436e-07	1.756606300780402e-07	-8.492262430061858e-08	-2.615081959713365e-08	-2.925274528815567e-07	-6.795671104378259e-08
0.58	-0.1427057276422719	0.07014412851283526	0.798386479901406	0.7138405921975832	-0.4592942381519732	-0.2482345467293041	-0.2538116354715847	0.7981384943800491	0.7981384943800559	-0.156072213061666	-0.1744174626320933	0.273601156506031	0.03807211899975976	-0.2049208477820278	0.01966322851127431	-0.3012313694194005	1.113144441398297	-0.2091989613403696	0.6415409297683999	-0.1015838412614161	1.481589768092731	1.481589768092742	0.006741263453053297	-0.002539061655040258	0.7009066334567996	0.1634990023708502	-0.08708228250222527	0.0571798061574432	-0.01265568453954327	-0.2353946281141512	-0.04371667398439034	0.02056681739420339	0.1154609752853536	-48.09277233573471	-4.822056934414283	5.356574301120131	7.716233799153731	-548.8137076717663	-61.01691074327363	-26.04939059985064	0.1783282857334883	0.09151519682534973	0.0351473885602929	-1.336147213751401	0.5784743045867931	-0.6592435401350898	0.7606561104716622	-2.130670615771514	-2.130670615771532	-0.1346016727527619	0.04425653038940568	-0.9690687198039583	0.2628935224849105	-6.286282907548433e-08	-3.857750916376876e-07	1.483865371954504e-07	-7.624056950975619e-08	-1.604419183374645e-08	-2.510591721324692e-07	-5.900765132116747e-08
